<?xml version="1.0" encoding="iso-8859-1"?>
<!-- Generator: Adobe Illustrator 19.0.0, SVG Export Plug-In . SVG Version: 6.00 Build 0)  -->
<svg version="1.1" id="Layer_1" xmlns="http://www.w3.org/2000/svg" xmlns:xlink="http://www.w3.org/1999/xlink" x="0px" y="0px"
	 viewBox="0 0 512 512" style="enable-background:new 0 0 512 512;" xml:space="preserve">
<polygon style="fill:#64DDE3;" points="205.459,504.069 121.712,504.069 121.712,71.727 163.585,7.87 205.459,71.727 "/>
<polygon style="fill:#37C9D4;" points="176.147,27.027 163.585,7.87 121.712,71.727 121.712,504.069 146.836,504.069 
	146.836,71.727 "/>
<circle style="fill:#FFDAB2;" cx="163.589" cy="88.479" r="16.749"/>
<polygon style="fill:#FFD042;" points="448.624,272.218 24.542,322.967 45.508,286.72 17.577,264.76 31.222,237.824 18.927,205.557 
	32.572,178.621 7.781,156.661 420.407,106.907 464.969,126.877 443.008,154.808 504.149,181.104 458.289,212.02 "/>
<polygon style="fill:#FFC412;" points="24.542,322.967 448.624,272.218 452.337,249.094 38.564,298.724 "/>
<path d="M154.687,448.586v-92.121c0-4.336-3.515-7.851-7.851-7.851c-4.336,0-7.851,3.515-7.851,7.851v92.121
	c0,4.336,3.515,7.851,7.851,7.851C151.172,456.438,154.687,452.922,154.687,448.586z"/>
<path d="M163.585,63.876c-13.565,0-24.601,11.036-24.601,24.601s11.036,24.601,24.601,24.601s24.601-11.036,24.601-24.601
	S177.15,63.876,163.585,63.876z M163.585,97.375c-4.906,0-8.898-3.992-8.898-8.898s3.992-8.898,8.898-8.898s8.898,3.992,8.898,8.898
	S168.492,97.375,163.585,97.375z"/>
<path d="M511.966,180.372c-0.268-2.86-2.076-5.344-4.715-6.479l-51.757-22.261l15.648-19.901c3.11-3.956,1.62-9.964-2.962-12.018
	l-44.561-19.97c-1.299-0.582-2.732-0.802-4.143-0.631l-72.58,8.686c-4.248,0.509-7.371,4.48-6.863,8.728
	c0.508,4.244,4.484,7.373,8.728,6.863l70.42-8.427l33.401,14.969l-15.746,20.026c-3.139,3.995-1.586,10.062,3.07,12.065
	l47.928,20.613L453.9,205.51c-1.802,1.214-3.019,3.121-3.363,5.266l-8.726,54.349l-402.609,48.18l13.104-22.654
	c1.957-3.382,1.128-7.688-1.943-10.103L27.49,262.566l10.736-21.195c1-1.973,1.12-4.276,0.333-6.344L27.5,206.007l12.076-23.837
	c1.614-3.184,0.875-7.058-1.797-9.425l-11.722-10.385l289.215-34.964c4.305-0.52,7.373-4.432,6.853-8.737
	c-0.521-4.305-4.424-7.376-8.737-6.852l-100.077,12.098V71.727c0-1.529-0.447-3.026-1.286-4.306L170.152,3.565
	c-3.046-4.646-10.085-4.646-13.131,0l-41.873,63.857c-0.839,1.279-1.286,2.775-1.286,4.306v64.2L6.839,148.866
	c-6.576,0.796-9.234,9.268-4.264,13.672l20.254,17.942l-10.907,21.53c-1,1.973-1.12,4.276-0.333,6.344l11.059,29.021l-12.075,23.837
	c-1.692,3.338-0.791,7.406,2.151,9.72l22.578,17.752l-17.556,30.352c-3.18,5.498,1.437,12.478,7.729,11.727l88.386-10.577v69.778
	c0,4.336,3.515,7.851,7.851,7.851c4.336,0,7.851-3.515,7.851-7.851v-71.657l42.92-5.136v76.793c0,4.336,3.515,7.851,7.851,7.851
	s7.851-3.515,7.851-7.851v-78.673l9.421-1.127v186.053h-9.421v-47.631c0-4.336-3.515-7.851-7.851-7.851s-7.851,3.515-7.851,7.851
	v47.631h-42.92v-72.755c0-4.336-3.515-7.851-7.851-7.851c-4.336,0-7.851,3.515-7.851,7.851v80.606c0,4.336,3.515,7.851,7.851,7.851
	h83.747c4.336,0,7.851-3.515,7.851-7.851V308.285l236.247-28.271c3.481-0.417,6.263-3.09,6.819-6.551l9.125-56.836l43.036-29.013
	C510.919,186.009,512.235,183.231,511.966,180.372z M129.563,74.072l34.022-51.884l34.022,51.884v51.731l-68.044,8.226V74.072z"/>
<path d="M138.389,217.091l-0.537,0.065c-0.009-0.174-0.024-0.348-0.045-0.522l-3.98-33.261c-0.515-4.306-4.422-7.374-8.728-6.863
	l-41.576,4.975c-4.244,0.508-7.371,4.481-6.863,8.728l9.95,83.154c0.508,4.243,4.481,7.372,8.728,6.863l49.892-5.971
	c4.306-0.515,7.378-4.423,6.863-8.728l-4.976-41.577C146.602,219.649,142.695,216.577,138.389,217.091z M96.295,222.146
	l-3.112-26.002l25.985-3.109l3.047,25.465c0.021,0.175,0.047,0.348,0.08,0.518l-25.483,3.049
	C96.637,222.088,96.465,222.115,96.295,222.146z M101.268,263.707l-3.111-26.003c0.173-0.009,0.348-0.024,0.521-0.045l33.781-4.043
	l3.11,25.985L101.268,263.707z"/>
<path d="M164.39,269.651c1.625,1.277,3.734,1.87,5.786,1.624l41.576-4.976c4.306-0.515,7.378-4.423,6.863-8.728
	c-0.515-4.306-4.427-7.376-8.728-6.863l-33.781,4.043l-3.11-25.986l17.15-2.052c4.306-0.515,7.378-4.423,6.863-8.728
	c-0.515-4.306-4.411-7.374-8.728-6.863l-17.15,2.052l-3.11-25.986l33.781-4.043c4.306-0.515,7.378-4.423,6.863-8.728
	c-0.515-4.306-4.426-7.373-8.728-6.863l-41.577,4.976c-4.244,0.508-7.371,4.481-6.863,8.728l9.951,83.153
	C161.695,266.48,162.753,268.364,164.39,269.651z"/>
<path d="M257.959,166.246c-1.391-3.193-4.83-5.12-8.278-4.642c-3.341,0.464-6.077,3.103-6.655,6.429l-14.995,86.139
	c-0.723,4.157,2.098,8.257,6.243,9.053c4.256,0.818,8.481-2.084,9.226-6.361l6.496-37.314l13.346-1.597l15.117,34.729
	c1.707,3.922,6.41,5.772,10.333,4.065c3.924-1.707,5.772-6.411,4.065-10.333L257.959,166.246z M252.808,203.4l1.2-6.89l2.792,6.413
	L252.808,203.4z"/>
<path d="M350.025,157.501c-0.515-4.306-4.427-7.372-8.728-6.863l-41.577,4.976c-4.306,0.515-7.378,4.423-6.863,8.728l9.95,83.153
	c0.508,4.243,4.481,7.372,8.728,6.863l41.577-4.976c4.306-0.515,7.378-4.423,6.863-8.728c-0.515-4.306-4.429-7.376-8.728-6.863
	l-33.781,4.043l-8.085-67.563l33.781-4.043C347.468,165.714,350.54,161.806,350.025,157.501z"/>
<path d="M374.971,154.516c-0.515-4.306-4.417-7.373-8.729-6.863c-4.306,0.515-7.378,4.423-6.863,8.728l9.951,83.153
	c0.477,3.989,3.866,6.92,7.786,6.92c0.311,0,0.626-0.019,0.942-0.057c4.306-0.515,7.378-4.423,6.863-8.728l-4.043-33.781l34.3-4.105
	l4.043,33.781c0.477,3.989,3.866,6.92,7.786,6.92c0.311,0,0.626-0.019,0.942-0.057c4.306-0.515,7.378-4.423,6.863-8.728
	l-9.95-83.154c-0.515-4.306-4.416-7.372-8.728-6.863c-4.306,0.515-7.378,4.423-6.863,8.728l4.043,33.781l-34.3,4.105
	L374.971,154.516z"/>
<g>
</g>
<g>
</g>
<g>
</g>
<g>
</g>
<g>
</g>
<g>
</g>
<g>
</g>
<g>
</g>
<g>
</g>
<g>
</g>
<g>
</g>
<g>
</g>
<g>
</g>
<g>
</g>
<g>
</g>
</svg>
