<svg id="filled_outline" height="512" viewBox="0 0 512 512" width="512" xmlns="http://www.w3.org/2000/svg" data-name="filled outline"><path d="m360 368-16 16-11.16 3.82-75.3 25.76-75.69 25.89-74.91 25.63-66.94 22.9h-16v-16l13.69-32.86 19.46-46.71 19.46-46.7 20.89-50.13 18.03-43.27 19.46-46.7 9.01-21.63 16-16 75.2 75.2 86.39 86.39z" fill="#d69651"/><g fill="#c78640"><path d="m181.85 439.47-74.91 25.63-69.25-25.96 19.46-46.71z"/><path d="m332.84 387.82-75.3 25.76-180.93-67.85 20.89-50.13z"/><path d="m321.59 329.59-206.06-77.26 19.46-46.7 100.21 37.57z"/></g><path d="m200 160 33.45253-33.45253a22.35447 22.35447 0 0 0 6.54747-15.80699 22.35449 22.35449 0 0 0 -13.54861-20.547l-20.83019-8.92725a88 88 0 0 1 -35.7351-28.08476l-9.8861-13.18147 24-16a84.068 84.068 0 0 0 43.36416 33.12137l9.52828 3.1761a51.34391 51.34391 0 0 1 35.10756 48.70913 51.34388 51.34388 0 0 1 -12.36071 33.41417l-35.63929 41.57923z" fill="#ffc431"/><path d="m312 120-8-48 48 16z" fill="#d1e4ff"/><path d="m352 312 33.45253-33.45253a22.35447 22.35447 0 0 1 15.80699-6.54747 22.35449 22.35449 0 0 1 20.547 13.54861l8.92722 20.83019a88 88 0 0 0 28.08476 35.7351l13.1815 9.8861 16-24a84.068 84.068 0 0 1 -33.12137-43.36416l-3.1761-9.52828a51.34391 51.34391 0 0 0 -48.70913-35.10756 51.34388 51.34388 0 0 0 -33.41417 12.36071l-41.57923 35.63929z" fill="#6173e8"/><path d="m416 208 48 8-16-48z" fill="#ffc431"/><path d="m256 224 31.86147-37.19594a62.70438 62.70438 0 0 1 40.701-21.53322l.90836-.10093a65.33609 65.33609 0 0 0 56.65665-50.7434v-.00007a44.862 44.862 0 0 1 31.98972-33.54931l61.8828-16.87713 8 32-43.26059 9.61346a45.02964 45.02964 0 0 0 -34.41627 35.27454l-.22714 1.15585a68.55691 68.55691 0 0 1 -60.44813 54.99139l-.94546.09455a70.182 70.182 0 0 0 -47.11109 24.93534c-10.48504 12.60734-21.59132 25.93487-21.59132 25.93487z" fill="#fb6a83"/><path d="m24 496h16a7.99989 7.99989 0 0 0 2.58936-.43066l304-104a7.9964 7.9964 0 0 0 3.06738-1.9126l16-16a7.99915 7.99915 0 0 0 0-11.31348l-200-200a8 8 0 0 0 -11.31348 0l-16 16a8.00156 8.00156 0 0 0 -1.728 2.57959l-120 288a8.0014 8.0014 0 0 0 -.61526 3.07715v16a7.99977 7.99977 0 0 0 8 8zm209.83569-82.76746-51.854 17.73963-114.26123-43.10156 13.30884-31.9408zm-146.64856-72.08178 13.30152-31.92371 208.65 78.2439-51.47351 17.60937zm71.02076 97.95446-51.14844 17.49817-58.79126-22.047 13.29481-31.90746zm181.4469-62.074-6.68653 2.2876-226.32178-84.8707 13.30152-31.92371 197.22033 73.95789 31.51767 31.5177zm-49.82764-67.89014-163.72115-61.39572 13.30151-31.92358 91.361 34.26062zm-129.82715-129.82708 43.42712 43.42713-57.86169-21.69837 5.21045-12.50512zm-128 294.2861 10.11023-24.26465 41.11977 15.42017-44.56057 15.24438h-6.66943z"/><path d="m194.34326 154.34326a7.99915 7.99915 0 0 0 0 11.31348l24 24a7.99805 7.99805 0 0 0 5.65625 2.34326q.15381 0 .30762-.00586a7.99992 7.99992 0 0 0 5.76709-2.7876l35.63867-41.5791a59.34377 59.34377 0 0 0 -26.29053-94.91944l-9.52836-3.17577a76.43814 76.43814 0 0 1 -39.23775-29.96973 8.00052 8.00052 0 0 0 -11.09375-2.21875l-24 16a7.99921 7.99921 0 0 0 -1.9624 11.456l9.88623 13.18165a96.12542 96.12542 0 0 0 38.9834 30.63769l20.83007 8.92725a14.35482 14.35482 0 0 1 4.4961 23.34423zm35.25928-71.50293-20.83008-8.92724a80.11227 80.11227 0 0 1 -32.48633-25.53125l-4.812-6.41651 10.60107-7.06733a92.57414 92.57414 0 0 0 42.75927 29.813l9.52832 3.17578a43.34378 43.34378 0 0 1 19.20215 69.32764l-30.0166 35.02-12.23434-12.23442 27.79542-27.7959a30.35416 30.35416 0 0 0 -9.50684-49.36377z"/><path d="m298.80273 65.918a8.00009 8.00009 0 0 0 -2.69384 7.397l8 48a8.00005 8.00005 0 0 0 12.88867 4.93213l40-32a8.00017 8.00017 0 0 0 -2.46777-13.83643l-48-16a7.99569 7.99569 0 0 0 -7.72706 1.5073zm36.7168 25.02148-17.87012 14.2959-3.57373-21.44388z"/><path d="m272 19.508h16v32.985h-16z" transform="matrix(.243 -.97 .97 .243 177.165 298.909)"/><path d="m341.578 24h28.844v16h-28.844z" transform="matrix(.832 -.555 .555 .832 42.04 202.848)"/><path d="m156 87.508h16v32.985h-16z" transform="matrix(.97 -.243 .243 .97 -20.327 42.881)"/><path d="m492.4375 321.34375a76.43814 76.43814 0 0 1 -29.96973-39.23775l-3.17578-9.52832a59.34429 59.34429 0 0 0 -94.91943-26.291l-41.5791 35.63916a8.00008 8.00008 0 0 0 -.4502 11.731l24 24a8 8 0 0 0 11.31348 0l33.45264-33.45264a14.35482 14.35482 0 0 1 23.34423 4.4961l8.92725 20.83007a96.12542 96.12542 0 0 0 30.63769 38.9834l13.18165 9.88623a7.99921 7.99921 0 0 0 11.45605-1.9624l16-24a7.99931 7.99931 0 0 0 -2.21875-11.09385zm-22.40283 19.18213-6.41651-4.812a80.11227 80.11227 0 0 1 -25.53125-32.48633l-8.92724-20.83008a30.35416 30.35416 0 0 0 -49.36377-9.50684l-27.7959 27.79537-12.23438-12.23438 35.02-30.01709a43.3443 43.3443 0 0 1 69.32764 19.20264l3.17578 9.52832a92.57414 92.57414 0 0 0 29.813 42.75927z"/><path d="m471.58936 213.47021-16-48a8.00017 8.00017 0 0 0 -13.83643-2.46777l-32 40a8.00006 8.00006 0 0 0 4.93213 12.88867l48 8a7.99962 7.99962 0 0 0 8.9043-10.4209zm-40.82471-11.11962 14.2959-17.87012 7.148 21.44385z"/><path d="m468 239.508h16v32.985h-16z" transform="matrix(.97 -.243 .243 .97 -47.877 123.09)"/><path d="m465.578 148h28.844v16h-28.844z" transform="matrix(.555 -.832 .832 .555 83.944 468.851)"/><path d="m400 331.508h16v32.985h-16z" transform="matrix(.243 -.97 .97 .243 -28.564 659.416)"/><path d="m495.76123 94.05957-8-32a8.00025 8.00025 0 0 0 -9.86621-5.77783l-61.88281 16.877a52.731 52.731 0 0 0 -37.69434 39.53272 57.38125 57.38125 0 0 1 -49.73193 44.52783l-.90674.10058a70.47685 70.47685 0 0 0 -45.89356 24.27979l-31.86132 37.1958a8.00033 8.00033 0 0 0 .41894 10.86133l24 24a7.99859 7.99859 0 0 0 5.65625 2.34321q.18092 0 .36279-.0083a7.998 7.998 0 0 0 5.78321-2.87012s11.10937-13.33105 21.59668-25.9414a61.9696 61.9696 0 0 1 41.7583-22.09034l.94336-.09423a76.55777 76.55777 0 0 0 67.50244-61.40967l.22705-1.15528a37.03054 37.03054 0 0 1 28.30127-29.00781l43.26074-9.61328a8.0001 8.0001 0 0 0 6.02588-9.75zm-52.75732 3.74414a53.03241 53.03241 0 0 0 -40.53077 41.54248l-.22656 1.15527a60.20432 60.20432 0 0 1 -53.39648 48.57374l-.94336.09423a77.87568 77.87568 0 0 0 -52.46631 27.78028c-5.79736 6.97119-11.78516 14.16211-15.979 19.19775l-12.56788-12.56738 27.04345-31.57129a54.52906 54.52906 0 0 1 35.51026-18.78711l.90673-.10059a73.37933 73.37933 0 0 0 63.583-56.95947 36.7697 36.7697 0 0 1 26.28516-27.56641l53.99853-14.727 4.02588 16.104z"/></svg>