<?xml version="1.0" encoding="iso-8859-1"?>
<!-- Generator: Adobe Illustrator 19.0.0, SVG Export Plug-In . SVG Version: 6.00 Build 0)  -->
<svg version="1.1" id="Layer_1" xmlns="http://www.w3.org/2000/svg" xmlns:xlink="http://www.w3.org/1999/xlink" x="0px" y="0px"
	 viewBox="0 0 512 512" style="enable-background:new 0 0 512 512;" xml:space="preserve">
<g transform="translate(0 -1)">
	<g>
		<path style="fill:#6D80AD;" d="M186.575,96.458c-4.799,0-8.678-3.879-8.678-8.678c0-35.033-17.191-69.424-34.712-69.424
			c-4.799,0-8.678-3.879-8.678-8.678S138.386,1,143.185,1c30.685,0,52.068,45.742,52.068,86.78
			C195.253,92.579,191.373,96.458,186.575,96.458"/>
		<path style="fill:#6D80AD;" d="M325.422,96.458c-4.799,0-8.678-3.879-8.678-8.678c0-41.038,21.383-86.78,52.068-86.78
			c4.799,0,8.678,3.879,8.678,8.678s-3.879,8.678-8.678,8.678c-17.521,0-34.712,34.391-34.712,69.424
			C334.1,92.579,330.221,96.458,325.422,96.458"/>
	</g>
	<path style="fill:#8697CB;" d="M170.321,178.638c10.995,12.852,16.176,38.279,16.254,65.345h139.116
		c1.024-23.656,6.066-48.085,15.985-65.345l0.469-0.72c5.727-8.73,7.68-19.395,5.415-29.583l-11.177-50.28
		c-1.336-6.005-6.656-10.275-12.809-10.275c-4.278,0-8.296,2.091-10.743,5.597l-56.832,81.182l-56.832-81.182
		c-2.447-3.506-6.465-5.597-10.743-5.597c-6.153,0-11.472,4.27-12.809,10.275l-11.177,50.28
		c-2.265,10.188-0.312,20.853,5.415,29.583L170.321,178.638z"/>
	<path style="fill:#5C7099;" d="M481.02,495.628c0.338-0.521,0.547-0.876,0.573-0.929v-0.095
		c-74.544-74.561-132.469-194.074-156.169-250.62h-95.458v0.009C229.966,382.884,342.198,495.299,481.02,495.628"/>
	<path style="fill:#556080;" d="M480.742,493.711c0.286,0.286,0.564,0.607,0.85,0.894v0.095c-0.026,0.052-0.234,0.408-0.573,0.929
		c-98.755-0.234-184.008-57.223-225.02-140.08c-41.012,82.857-126.264,139.845-225.02,140.08c-0.382-0.581-0.607-0.989-0.607-0.989
		s17.356,34.712,95.458,8.678c0,0,37.619-12.54,70.222-5.641c15.091,3.193,30.338,6.647,45.768,6.647H256h14.18
		c15.429,0,30.668-3.454,45.768-6.647c32.603-6.899,70.222,5.641,70.222,5.641c78.102,26.034,95.458-8.678,95.458-8.678
		C481.323,494.345,481.037,494.015,480.742,493.711"/>
	<path style="fill:#6D80AD;" d="M229.964,243.989L229.964,243.989l-43.39-0.009c-23.665,56.459-81.46,176.683-155.83,251.27
		c0.078,0.13,0.13,0.226,0.234,0.382c98.755-0.243,184.008-57.223,225.02-140.088c0,0.009,0.009,0.017,0.017,0.026
		C239.363,321.952,229.964,284.09,229.964,243.989"/>
</g>
<g>
</g>
<g>
</g>
<g>
</g>
<g>
</g>
<g>
</g>
<g>
</g>
<g>
</g>
<g>
</g>
<g>
</g>
<g>
</g>
<g>
</g>
<g>
</g>
<g>
</g>
<g>
</g>
<g>
</g>
</svg>
