<svg height="512pt" viewBox="-6 0 512 512" width="512pt" xmlns="http://www.w3.org/2000/svg"><path d="m170.121094 146.859375v150.058594h160.0625v-150.058594c0-44.195313-35.835938-80.03125-80.03125-80.03125-44.199219 0-80.03125 35.835937-80.03125 80.03125zm0 0" fill="#fbc56d"/><path d="m170.121094 226.890625h160.0625v70.027344h-160.0625zm0 0" fill="#ebae56"/><path d="m185.125 255.109375v91.828125h130.050781v-91.828125h-37.015625v-57.230469h-56.019531v57.230469zm0 0" fill="#ffdaaa"/><path d="m278.160156 255.109375v-57.230469h-56.019531v57.230469h-4.199219c9.859375 4.359375 20.753906 6.792969 32.210938 6.792969 11.457031 0 22.347656-2.4375 32.210937-6.792969zm0 0" fill="#ffb680"/><path d="m250.152344 231.890625c27.625 0 50.019531-22.394531 50.019531-50.019531v-39.011719h-100.039063v39.011719c0 27.625 22.394532 50.019531 50.019532 50.019531zm0 0" fill="#ffdaaa"/><path d="m469.882812 8.039062c-14.90625-2.925781-29.476562 6.402344-33.050781 21.167969l-44.628906 184.300781-41.015625 41.605469h-58.59375v1.996094c0 29.375-16.367188 56.296875-42.445312 69.820313-26.074219-13.523438-42.441407-40.445313-42.441407-69.820313v-1.996094h-58.59375l-41.019531-41.605469-44.625-184.300781c-3.574219-14.765625-18.140625-24.09375-33.050781-21.167969-15.957031 3.136719-26.023438 19.015626-22.046875 34.785157l51.707031 205.074219 101.039063 101.039062c-11.441407 53.238281-17.800782 115.078125 0 163.0625h178.066406c-17.796875-47.984375-11.4375-109.824219 0-163.0625l101.039062-101.039062 51.707032-205.074219c3.976562-15.769531-6.085938-31.648438-22.046876-34.785157zm0 0" fill="#ffbad7"/><path d="m108.097656 213.507812-44.628906-184.300781c-3.574219-14.765625-18.140625-24.09375-33.050781-21.167969-15.957031 3.136719-26.023438 19.015626-22.046875 34.785157l51.707031 205.074219 22.507813 22.507812 41.09375-41.09375zm0 0" fill="#ffdaaa"/><path d="m469.882812 8.039062c-14.90625-2.925781-29.476562 6.402344-33.050781 21.167969l-44.628906 184.300781-15.582031 15.804688 41.09375 41.09375 22.507812-22.507812 51.707032-205.074219c3.976562-15.769531-6.085938-31.648438-22.046876-34.785157zm0 0" fill="#ffdaaa"/><path d="m82.585938 270.40625 41.09375-41.09375-15.582032-15.804688-2.15625-8.898437-44.574218 44.578125zm0 0" fill="#ffb680"/><path d="m394.359375 204.609375-2.152344 8.898437-15.585937 15.804688 41.09375 41.09375 21.222656-21.21875zm0 0" fill="#ffb680"/><path d="m173.613281 464.710938c-.484375-4.964844-.8125-10.171876-.972656-15.476563l15-.449219c.148437 4.96875.453125 9.835938.90625 14.464844zm14.011719-30.511719-15-.390625c.355469-13.582032 1.675781-28.363282 3.929688-43.929688l14.851562 2.148438c-2.171875 14.988281-3.441406 29.175781-3.78125 42.171875zm0 0" fill="#fff"/><path d="m279.910156 116.527344c-5.332031-5.234375-11.941406-8.980469-19.113281-10.835938l3.757813-14.527344c9.714843 2.511719 18.660156 7.578126 25.863281 14.652344zm-44.207031-9.65625-5.117187-14.109375c5.417968-1.960938 11.09375-3.09375 16.871093-3.363281l.695313 14.988281c-4.265625.199219-8.457032 1.035156-12.449219 2.484375zm0 0" fill="#fff"/><path d="m397.710938 407.789062-14.910157-1.699218c-3.585937 31.433594-2.703125 57.691406 2.628907 78.039062l14.515624-3.800781c-4.859374-18.546875-5.613281-42.953125-2.234374-72.539063zm0 0"/><path d="m366.191406 423.183594.015625-.476563-7.582031.003907-7.410156-.460938c-.992188 15.945312-.777344 30.78125.648437 44.089844l7.414063-.792969 7.546875-.003906-.042969-.800781c-1.332031-12.46875-1.53125-26.453126-.589844-41.558594zm0 0"/><path d="m471.332031.679688c-2.292969-.453126-4.628906-.679688-6.945312-.679688-16.605469 0-30.9375 11.285156-34.847657 27.441406l-44.136718 182.277344-37.351563 37.890625h-10.367187v-100.75c0-22.621094-8.601563-44.089844-24.21875-60.441406l-10.851563 10.359375c12.941407 13.550781 20.066407 31.335937 20.066407 50.082031v100.75h-37.015626v-20.535156c13.386719-10.542969 22.007813-26.878907 22.007813-45.203125v-46.515625h-69.953125v15.003906h54.949219v31.511719c0 23.445312-19.074219 42.519531-42.515625 42.519531-23.445313 0-42.515625-19.074219-42.515625-42.519531v-31.511719h15.074219v-15.003906h-30.082032v46.515625c0 18.324218 8.621094 34.660156 22.007813 45.203125v20.535156h-37.011719v-100.75c0-39.992187 32.535156-72.527344 72.527344-72.527344 15.253906 0 29.851562 4.679688 42.203125 13.539063l8.746093-12.195313c-14.921874-10.695312-32.539062-16.347656-50.953124-16.351562-48.265626 0-87.53125 39.269531-87.53125 87.535156v100.75h-10.367188l-37.351562-37.890625-18.367188-75.84375-14.582031 3.53125 19.34375 79.886719 11.816406 11.980469-30.523437 30.523437-15.738282-15.738281-51.199218-203.066406c-.425782-1.6875-.644532-3.414063-.644532-5.132813 0-9.933594 7.09375-18.539063 16.863282-20.457031 1.335937-.261719 2.695312-.398438 4.046874-.398438 9.652344 0 17.988282 6.566406 20.265626 15.96875l22.238281 91.847656 14.582031-3.53125-22.238281-91.847656c-3.914063-16.15625-18.242188-27.441406-34.847657-27.441406-2.316406 0-4.652343.226562-6.941406.675781-16.789062 3.300781-28.972656 18.097657-28.972656 35.183594 0 2.953125.371094 5.914063 1.097656 8.800781l52.210938 207.078125 99.625 99.625c-6.90625 33.183594-10.40625 63.410157-10.40625 89.898438 0 26.574219 3.507812 50.191406 10.429687 70.191406l14.179688-4.910156c-6.371094-18.414063-9.605469-40.378907-9.605469-65.28125 0-26.492188 3.675781-57.027344 10.921875-90.75l.855469-3.992188-76.109375-76.113281 30.441406-30.445312 22.332031 22.652343h54.414063c1.894531 30.097657 19.269531 56.953125 46.308593 70.976563l3.453126 1.789062 3.457031-1.789062c27.039062-14.023438 44.414062-40.878906 46.308593-70.976563h54.414063l22.328125-22.652343 30.445312 30.445312-74.789062 74.789062-.464844 2.164063c-4.105468 19.101563-7.121094 37.339844-8.964844 54.214844l14.917969 1.628906c1.71875-15.726563 4.496094-32.71875 8.257813-50.53125l100.933594-100.933594 52.214843-207.082031c.726563-2.886719 1.097657-5.847656 1.097657-8.796875 0-17.089844-12.1875-31.882813-28.972657-35.179687zm-221.179687 317.675781c-20.074219-11.839844-32.953125-32.578125-34.722656-55.742188h14.214843v-27.011719c6.375 2.441407 13.285157 3.792969 20.507813 3.792969s14.132812-1.351562 20.507812-3.792969v27.011719h14.210938c-1.769532 23.164063-14.648438 43.902344-34.71875 55.742188zm234.503906-277.363281-51.203125 203.066406-15.738281 15.738281-30.519532-30.523437 11.8125-11.980469 45.117188-186.320313c2.277344-9.402344 10.609375-15.96875 20.261719-15.96875 1.347656 0 2.710937.136719 4.050781.398438 9.769531 1.917968 16.859375 10.523437 16.859375 20.457031 0 1.714844-.214844 3.441406-.640625 5.132813zm0 0"/><path d="m336.46875 417.871094-14.96875-1.070313c-.601562 8.398438-.90625 16.628907-.90625 24.460938 0 26.578125 3.511719 50.195312 10.429688 70.191406l14.183593-4.910156c-6.375-18.414063-9.605469-40.375-9.605469-65.28125 0-7.476563.289063-15.347657.867188-23.390625zm0 0"/><path d="m123.601562 87.335938h15.007813v15.007812h-15.007813zm0 0"/><path d="m123.601562 37.316406h15.007813v15.007813h-15.007813zm0 0"/><path d="m148.613281 62.328125h15.003907v15.003906h-15.003907zm0 0"/><path d="m98.59375 62.328125h15.003906v15.003906h-15.003906zm0 0"/><path d="m359.695312 57.324219h15.003907v15.007812h-15.003907zm0 0"/><path d="m359.695312 7.304688h15.003907v15.007812h-15.003907zm0 0"/><path d="m384.703125 32.316406h15.003906v15.003906h-15.003906zm0 0"/><path d="m334.683594 32.316406h15.007812v15.003906h-15.007812zm0 0"/><path d="m74.75 404.238281-7.085938 2.476563c-11.714843 4.09375-17.917968 16.953125-13.824218 28.671875 3.238281 9.269531 11.960937 15.085937 21.269531 15.085937 2.457031 0 4.953125-.40625 7.398437-1.257812 5.679688-1.984375 10.242188-6.058594 12.855469-11.472656 2.609375-5.414063 2.957031-11.523438.976563-17.199219l-19.527344-55.894531 25.632812 2.667968 1.554688-14.921875-49.148438-5.121093zm7.097656 26.984375c-.871094 1.804688-2.394531 3.164063-4.285156 3.824219-3.90625 1.367187-8.191406-.703125-9.558594-4.609375-1.363281-3.90625.703125-8.191406 4.609375-9.558594l7.082031-2.472656 2.476563 7.082031c.660156 1.894531.546875 3.929688-.324219 5.734375zm0 0"/><path d="m425.71875 369.445312h15.003906v15.003907h-15.003906zm0 0"/><path d="m425.71875 319.425781h15.003906v15.007813h-15.003906zm0 0"/><path d="m450.726562 344.433594h15.007813v15.007812h-15.007813zm0 0"/><path d="m400.710938 344.433594h15.003906v15.007812h-15.003906zm0 0"/></svg>