<svg id="Capa_1" enable-background="new 0 0 512 512" height="512" viewBox="0 0 512 512" width="512" xmlns="http://www.w3.org/2000/svg"><g><path d="m512 407c0 57.9-47.1 105-105 105s-105-47.1-105-105c0-11.55 1.88-22.66 5.34-33.06l-116.13-58.07c-18.99 27.26-50.55 45.13-86.21 45.13-57.9 0-105-47.1-105-105s47.1-105 105-105c35.66 0 67.22 17.87 86.21 45.13l116.13-58.07c-3.46-10.4-5.34-21.51-5.34-33.06 0-57.9 47.1-105 105-105s105 47.1 105 105-47.1 105-105 105c-35.66 0-67.22-17.87-86.21-45.13l-116.13 58.07c3.46 10.4 5.34 21.51 5.34 33.06s-1.88 22.66-5.34 33.06l116.13 58.07c18.99-27.26 50.55-45.13 86.21-45.13 57.9 0 105 47.1 105 105z" fill="#76e2f8"/><path d="m512 407c0 57.9-47.1 105-105 105s-105-47.1-105-105c0-11.55 1.88-22.66 5.34-33.06l-116.13-58.07c-18.99 27.26-50.55 45.13-86.21 45.13-57.9 0-105-47.1-105-105h210c0 11.55-1.88 22.66-5.34 33.06l116.13 58.07c18.99-27.26 50.55-45.13 86.21-45.13 57.9 0 105 47.1 105 105z" fill="#4bb9ec"/></g></svg>